<?xml version="1.0" encoding="utf-8" standalone="no"?>
<!DOCTYPE svg PUBLIC "-//W3C//DTD SVG 1.1//EN"
  "http://www.w3.org/Graphics/SVG/1.1/DTD/svg11.dtd">
<!-- Created with matplotlib (http://matplotlib.org/) -->
<svg height="345pt" version="1.1" viewBox="0 0 460 345" width="460pt" xmlns="http://www.w3.org/2000/svg" xmlns:xlink="http://www.w3.org/1999/xlink">
 <defs>
  <style type="text/css">
*{stroke-linecap:butt;stroke-linejoin:round;}
  </style>
 </defs>
 <g id="figure_1">
  <g id="patch_1">
   <path d="M 0 345.6 
L 460.8 345.6 
L 460.8 0 
L 0 0 
z
" style="fill:#f0f0f0;"/>
  </g>
  <g id="axes_1">
   <g id="patch_2">
    <path d="M 54.470209 296.008 
L 432.73125 296.008 
L 432.73125 83.616 
L 54.470209 83.616 
z
" style="fill:#ffffff;"/>
   </g>
   <g id="matplotlib.axis_1">
    <g id="xtick_1">
     <g id="line2d_1">
      <defs>
       <path d="M 0 0 
L 0 3.5 
" id="m132a519396" style="stroke:#000000;stroke-width:0.8;"/>
      </defs>
      <g>
       <use style="stroke:#000000;stroke-width:0.8;" x="54.470209" xlink:href="#m132a519396" y="296.008"/>
      </g>
     </g>
     <g id="text_1">
      <!-- ${10^{2}}$ -->
      <defs>
       <path d="M 12.40625 8.296875 
L 28.515625 8.296875 
L 28.515625 63.921875 
L 10.984375 60.40625 
L 10.984375 69.390625 
L 28.421875 72.90625 
L 38.28125 72.90625 
L 38.28125 8.296875 
L 54.390625 8.296875 
L 54.390625 0 
L 12.40625 0 
z
" id="DejaVuSans-31"/>
       <path d="M 31.78125 66.40625 
Q 24.171875 66.40625 20.328125 58.90625 
Q 16.5 51.421875 16.5 36.375 
Q 16.5 21.390625 20.328125 13.890625 
Q 24.171875 6.390625 31.78125 6.390625 
Q 39.453125 6.390625 43.28125 13.890625 
Q 47.125 21.390625 47.125 36.375 
Q 47.125 51.421875 43.28125 58.90625 
Q 39.453125 66.40625 31.78125 66.40625 
M 31.78125 74.21875 
Q 44.046875 74.21875 50.515625 64.515625 
Q 56.984375 54.828125 56.984375 36.375 
Q 56.984375 17.96875 50.515625 8.265625 
Q 44.046875 -1.421875 31.78125 -1.421875 
Q 19.53125 -1.421875 13.0625 8.265625 
Q 6.59375 17.96875 6.59375 36.375 
Q 6.59375 54.828125 13.0625 64.515625 
Q 19.53125 74.21875 31.78125 74.21875 
" id="DejaVuSans-30"/>
       <path d="M 19.1875 8.296875 
L 53.609375 8.296875 
L 53.609375 0 
L 7.328125 0 
L 7.328125 8.296875 
Q 12.9375 14.109375 22.625 23.890625 
Q 32.328125 33.6875 34.8125 36.53125 
Q 39.546875 41.84375 41.421875 45.53125 
Q 43.3125 49.21875 43.3125 52.78125 
Q 43.3125 58.59375 39.234375 62.25 
Q 35.15625 65.921875 28.609375 65.921875 
Q 23.96875 65.921875 18.8125 64.3125 
Q 13.671875 62.703125 7.8125 59.421875 
L 7.8125 69.390625 
Q 13.765625 71.78125 18.9375 73 
Q 24.125 74.21875 28.421875 74.21875 
Q 39.75 74.21875 46.484375 68.546875 
Q 53.21875 62.890625 53.21875 53.421875 
Q 53.21875 48.921875 51.53125 44.890625 
Q 49.859375 40.875 45.40625 35.40625 
Q 44.1875 33.984375 37.640625 27.21875 
Q 31.109375 20.453125 19.1875 8.296875 
" id="DejaVuSans-32"/>
      </defs>
      <g transform="translate(45.670209 310.606437)scale(0.1 -0.1)">
       <use transform="translate(0 0.765625)" xlink:href="#DejaVuSans-31"/>
       <use transform="translate(63.623047 0.765625)" xlink:href="#DejaVuSans-30"/>
       <use transform="translate(128.203125 39.046875)scale(0.7)" xlink:href="#DejaVuSans-32"/>
      </g>
     </g>
    </g>
    <g id="xtick_2">
     <g id="line2d_2">
      <g>
       <use style="stroke:#000000;stroke-width:0.8;" x="180.557223" xlink:href="#m132a519396" y="296.008"/>
      </g>
     </g>
     <g id="text_2">
      <!-- ${10^{3}}$ -->
      <defs>
       <path d="M 40.578125 39.3125 
Q 47.65625 37.796875 51.625 33 
Q 55.609375 28.21875 55.609375 21.1875 
Q 55.609375 10.40625 48.1875 4.484375 
Q 40.765625 -1.421875 27.09375 -1.421875 
Q 22.515625 -1.421875 17.65625 -0.515625 
Q 12.796875 0.390625 7.625 2.203125 
L 7.625 11.71875 
Q 11.71875 9.328125 16.59375 8.109375 
Q 21.484375 6.890625 26.8125 6.890625 
Q 36.078125 6.890625 40.9375 10.546875 
Q 45.796875 14.203125 45.796875 21.1875 
Q 45.796875 27.640625 41.28125 31.265625 
Q 36.765625 34.90625 28.71875 34.90625 
L 20.21875 34.90625 
L 20.21875 43.015625 
L 29.109375 43.015625 
Q 36.375 43.015625 40.234375 45.921875 
Q 44.09375 48.828125 44.09375 54.296875 
Q 44.09375 59.90625 40.109375 62.90625 
Q 36.140625 65.921875 28.71875 65.921875 
Q 24.65625 65.921875 20.015625 65.03125 
Q 15.375 64.15625 9.8125 62.3125 
L 9.8125 71.09375 
Q 15.4375 72.65625 20.34375 73.4375 
Q 25.25 74.21875 29.59375 74.21875 
Q 40.828125 74.21875 47.359375 69.109375 
Q 53.90625 64.015625 53.90625 55.328125 
Q 53.90625 49.265625 50.4375 45.09375 
Q 46.96875 40.921875 40.578125 39.3125 
" id="DejaVuSans-33"/>
      </defs>
      <g transform="translate(171.757223 310.606437)scale(0.1 -0.1)">
       <use transform="translate(0 0.765625)" xlink:href="#DejaVuSans-31"/>
       <use transform="translate(63.623047 0.765625)" xlink:href="#DejaVuSans-30"/>
       <use transform="translate(128.203125 39.046875)scale(0.7)" xlink:href="#DejaVuSans-33"/>
      </g>
     </g>
    </g>
    <g id="xtick_3">
     <g id="line2d_3">
      <g>
       <use style="stroke:#000000;stroke-width:0.8;" x="306.644236" xlink:href="#m132a519396" y="296.008"/>
      </g>
     </g>
     <g id="text_3">
      <!-- ${10^{4}}$ -->
      <defs>
       <path d="M 37.796875 64.3125 
L 12.890625 25.390625 
L 37.796875 25.390625 
z
M 35.203125 72.90625 
L 47.609375 72.90625 
L 47.609375 25.390625 
L 58.015625 25.390625 
L 58.015625 17.1875 
L 47.609375 17.1875 
L 47.609375 0 
L 37.796875 0 
L 37.796875 17.1875 
L 4.890625 17.1875 
L 4.890625 26.703125 
z
" id="DejaVuSans-34"/>
      </defs>
      <g transform="translate(297.844236 310.606437)scale(0.1 -0.1)">
       <use transform="translate(0 0.684375)" xlink:href="#DejaVuSans-31"/>
       <use transform="translate(63.623047 0.684375)" xlink:href="#DejaVuSans-30"/>
       <use transform="translate(128.203125 38.965625)scale(0.7)" xlink:href="#DejaVuSans-34"/>
      </g>
     </g>
    </g>
    <g id="xtick_4">
     <g id="line2d_4">
      <g>
       <use style="stroke:#000000;stroke-width:0.8;" x="432.73125" xlink:href="#m132a519396" y="296.008"/>
      </g>
     </g>
     <g id="text_4">
      <!-- ${10^{5}}$ -->
      <defs>
       <path d="M 10.796875 72.90625 
L 49.515625 72.90625 
L 49.515625 64.59375 
L 19.828125 64.59375 
L 19.828125 46.734375 
Q 21.96875 47.46875 24.109375 47.828125 
Q 26.265625 48.1875 28.421875 48.1875 
Q 40.625 48.1875 47.75 41.5 
Q 54.890625 34.8125 54.890625 23.390625 
Q 54.890625 11.625 47.5625 5.09375 
Q 40.234375 -1.421875 26.90625 -1.421875 
Q 22.3125 -1.421875 17.546875 -0.640625 
Q 12.796875 0.140625 7.71875 1.703125 
L 7.71875 11.625 
Q 12.109375 9.234375 16.796875 8.0625 
Q 21.484375 6.890625 26.703125 6.890625 
Q 35.15625 6.890625 40.078125 11.328125 
Q 45.015625 15.765625 45.015625 23.390625 
Q 45.015625 31 40.078125 35.4375 
Q 35.15625 39.890625 26.703125 39.890625 
Q 22.75 39.890625 18.8125 39.015625 
Q 14.890625 38.140625 10.796875 36.28125 
z
" id="DejaVuSans-35"/>
      </defs>
      <g transform="translate(423.93125 310.606437)scale(0.1 -0.1)">
       <use transform="translate(0 0.684375)" xlink:href="#DejaVuSans-31"/>
       <use transform="translate(63.623047 0.684375)" xlink:href="#DejaVuSans-30"/>
       <use transform="translate(128.203125 38.965625)scale(0.7)" xlink:href="#DejaVuSans-35"/>
      </g>
     </g>
    </g>
    <g id="xtick_5">
     <g id="line2d_5">
      <defs>
       <path d="M 0 0 
L 0 2 
" id="m5d6079fcf9" style="stroke:#000000;stroke-width:0.6;"/>
      </defs>
      <g>
       <use style="stroke:#000000;stroke-width:0.6;" x="92.426182" xlink:href="#m5d6079fcf9" y="296.008"/>
      </g>
     </g>
    </g>
    <g id="xtick_6">
     <g id="line2d_6">
      <g>
       <use style="stroke:#000000;stroke-width:0.6;" x="114.629003" xlink:href="#m5d6079fcf9" y="296.008"/>
      </g>
     </g>
    </g>
    <g id="xtick_7">
     <g id="line2d_7">
      <g>
       <use style="stroke:#000000;stroke-width:0.6;" x="130.382155" xlink:href="#m5d6079fcf9" y="296.008"/>
      </g>
     </g>
    </g>
    <g id="xtick_8">
     <g id="line2d_8">
      <g>
       <use style="stroke:#000000;stroke-width:0.6;" x="142.60125" xlink:href="#m5d6079fcf9" y="296.008"/>
      </g>
     </g>
    </g>
    <g id="xtick_9">
     <g id="line2d_9">
      <g>
       <use style="stroke:#000000;stroke-width:0.6;" x="152.584976" xlink:href="#m5d6079fcf9" y="296.008"/>
      </g>
     </g>
    </g>
    <g id="xtick_10">
     <g id="line2d_10">
      <g>
       <use style="stroke:#000000;stroke-width:0.6;" x="161.026097" xlink:href="#m5d6079fcf9" y="296.008"/>
      </g>
     </g>
    </g>
    <g id="xtick_11">
     <g id="line2d_11">
      <g>
       <use style="stroke:#000000;stroke-width:0.6;" x="168.338129" xlink:href="#m5d6079fcf9" y="296.008"/>
      </g>
     </g>
    </g>
    <g id="xtick_12">
     <g id="line2d_12">
      <g>
       <use style="stroke:#000000;stroke-width:0.6;" x="174.787797" xlink:href="#m5d6079fcf9" y="296.008"/>
      </g>
     </g>
    </g>
    <g id="xtick_13">
     <g id="line2d_13">
      <g>
       <use style="stroke:#000000;stroke-width:0.6;" x="218.513196" xlink:href="#m5d6079fcf9" y="296.008"/>
      </g>
     </g>
    </g>
    <g id="xtick_14">
     <g id="line2d_14">
      <g>
       <use style="stroke:#000000;stroke-width:0.6;" x="240.716017" xlink:href="#m5d6079fcf9" y="296.008"/>
      </g>
     </g>
    </g>
    <g id="xtick_15">
     <g id="line2d_15">
      <g>
       <use style="stroke:#000000;stroke-width:0.6;" x="256.469169" xlink:href="#m5d6079fcf9" y="296.008"/>
      </g>
     </g>
    </g>
    <g id="xtick_16">
     <g id="line2d_16">
      <g>
       <use style="stroke:#000000;stroke-width:0.6;" x="268.688263" xlink:href="#m5d6079fcf9" y="296.008"/>
      </g>
     </g>
    </g>
    <g id="xtick_17">
     <g id="line2d_17">
      <g>
       <use style="stroke:#000000;stroke-width:0.6;" x="278.67199" xlink:href="#m5d6079fcf9" y="296.008"/>
      </g>
     </g>
    </g>
    <g id="xtick_18">
     <g id="line2d_18">
      <g>
       <use style="stroke:#000000;stroke-width:0.6;" x="287.113111" xlink:href="#m5d6079fcf9" y="296.008"/>
      </g>
     </g>
    </g>
    <g id="xtick_19">
     <g id="line2d_19">
      <g>
       <use style="stroke:#000000;stroke-width:0.6;" x="294.425142" xlink:href="#m5d6079fcf9" y="296.008"/>
      </g>
     </g>
    </g>
    <g id="xtick_20">
     <g id="line2d_20">
      <g>
       <use style="stroke:#000000;stroke-width:0.6;" x="300.874811" xlink:href="#m5d6079fcf9" y="296.008"/>
      </g>
     </g>
    </g>
    <g id="xtick_21">
     <g id="line2d_21">
      <g>
       <use style="stroke:#000000;stroke-width:0.6;" x="344.60021" xlink:href="#m5d6079fcf9" y="296.008"/>
      </g>
     </g>
    </g>
    <g id="xtick_22">
     <g id="line2d_22">
      <g>
       <use style="stroke:#000000;stroke-width:0.6;" x="366.803031" xlink:href="#m5d6079fcf9" y="296.008"/>
      </g>
     </g>
    </g>
    <g id="xtick_23">
     <g id="line2d_23">
      <g>
       <use style="stroke:#000000;stroke-width:0.6;" x="382.556183" xlink:href="#m5d6079fcf9" y="296.008"/>
      </g>
     </g>
    </g>
    <g id="xtick_24">
     <g id="line2d_24">
      <g>
       <use style="stroke:#000000;stroke-width:0.6;" x="394.775277" xlink:href="#m5d6079fcf9" y="296.008"/>
      </g>
     </g>
    </g>
    <g id="xtick_25">
     <g id="line2d_25">
      <g>
       <use style="stroke:#000000;stroke-width:0.6;" x="404.759004" xlink:href="#m5d6079fcf9" y="296.008"/>
      </g>
     </g>
    </g>
    <g id="xtick_26">
     <g id="line2d_26">
      <g>
       <use style="stroke:#000000;stroke-width:0.6;" x="413.200124" xlink:href="#m5d6079fcf9" y="296.008"/>
      </g>
     </g>
    </g>
    <g id="xtick_27">
     <g id="line2d_27">
      <g>
       <use style="stroke:#000000;stroke-width:0.6;" x="420.512156" xlink:href="#m5d6079fcf9" y="296.008"/>
      </g>
     </g>
    </g>
    <g id="xtick_28">
     <g id="line2d_28">
      <g>
       <use style="stroke:#000000;stroke-width:0.6;" x="426.961825" xlink:href="#m5d6079fcf9" y="296.008"/>
      </g>
     </g>
    </g>
    <g id="text_5">
     <!-- Avalanche Size -->
     <defs>
      <path d="M 34.1875 63.1875 
L 20.796875 26.90625 
L 47.609375 26.90625 
z
M 28.609375 72.90625 
L 39.796875 72.90625 
L 67.578125 0 
L 57.328125 0 
L 50.6875 18.703125 
L 17.828125 18.703125 
L 11.1875 0 
L 0.78125 0 
z
" id="DejaVuSans-41"/>
      <path d="M 2.984375 54.6875 
L 12.5 54.6875 
L 29.59375 8.796875 
L 46.6875 54.6875 
L 56.203125 54.6875 
L 35.6875 0 
L 23.484375 0 
z
" id="DejaVuSans-76"/>
      <path d="M 34.28125 27.484375 
Q 23.390625 27.484375 19.1875 25 
Q 14.984375 22.515625 14.984375 16.5 
Q 14.984375 11.71875 18.140625 8.90625 
Q 21.296875 6.109375 26.703125 6.109375 
Q 34.1875 6.109375 38.703125 11.40625 
Q 43.21875 16.703125 43.21875 25.484375 
L 43.21875 27.484375 
z
M 52.203125 31.203125 
L 52.203125 0 
L 43.21875 0 
L 43.21875 8.296875 
Q 40.140625 3.328125 35.546875 0.953125 
Q 30.953125 -1.421875 24.3125 -1.421875 
Q 15.921875 -1.421875 10.953125 3.296875 
Q 6 8.015625 6 15.921875 
Q 6 25.140625 12.171875 29.828125 
Q 18.359375 34.515625 30.609375 34.515625 
L 43.21875 34.515625 
L 43.21875 35.40625 
Q 43.21875 41.609375 39.140625 45 
Q 35.0625 48.390625 27.6875 48.390625 
Q 23 48.390625 18.546875 47.265625 
Q 14.109375 46.140625 10.015625 43.890625 
L 10.015625 52.203125 
Q 14.9375 54.109375 19.578125 55.046875 
Q 24.21875 56 28.609375 56 
Q 40.484375 56 46.34375 49.84375 
Q 52.203125 43.703125 52.203125 31.203125 
" id="DejaVuSans-61"/>
      <path d="M 9.421875 75.984375 
L 18.40625 75.984375 
L 18.40625 0 
L 9.421875 0 
z
" id="DejaVuSans-6c"/>
      <path d="M 54.890625 33.015625 
L 54.890625 0 
L 45.90625 0 
L 45.90625 32.71875 
Q 45.90625 40.484375 42.875 44.328125 
Q 39.84375 48.1875 33.796875 48.1875 
Q 26.515625 48.1875 22.3125 43.546875 
Q 18.109375 38.921875 18.109375 30.90625 
L 18.109375 0 
L 9.078125 0 
L 9.078125 54.6875 
L 18.109375 54.6875 
L 18.109375 46.1875 
Q 21.34375 51.125 25.703125 53.5625 
Q 30.078125 56 35.796875 56 
Q 45.21875 56 50.046875 50.171875 
Q 54.890625 44.34375 54.890625 33.015625 
" id="DejaVuSans-6e"/>
      <path d="M 48.78125 52.59375 
L 48.78125 44.1875 
Q 44.96875 46.296875 41.140625 47.34375 
Q 37.3125 48.390625 33.40625 48.390625 
Q 24.65625 48.390625 19.8125 42.84375 
Q 14.984375 37.3125 14.984375 27.296875 
Q 14.984375 17.28125 19.8125 11.734375 
Q 24.65625 6.203125 33.40625 6.203125 
Q 37.3125 6.203125 41.140625 7.25 
Q 44.96875 8.296875 48.78125 10.40625 
L 48.78125 2.09375 
Q 45.015625 0.34375 40.984375 -0.53125 
Q 36.96875 -1.421875 32.421875 -1.421875 
Q 20.0625 -1.421875 12.78125 6.34375 
Q 5.515625 14.109375 5.515625 27.296875 
Q 5.515625 40.671875 12.859375 48.328125 
Q 20.21875 56 33.015625 56 
Q 37.15625 56 41.109375 55.140625 
Q 45.0625 54.296875 48.78125 52.59375 
" id="DejaVuSans-63"/>
      <path d="M 54.890625 33.015625 
L 54.890625 0 
L 45.90625 0 
L 45.90625 32.71875 
Q 45.90625 40.484375 42.875 44.328125 
Q 39.84375 48.1875 33.796875 48.1875 
Q 26.515625 48.1875 22.3125 43.546875 
Q 18.109375 38.921875 18.109375 30.90625 
L 18.109375 0 
L 9.078125 0 
L 9.078125 75.984375 
L 18.109375 75.984375 
L 18.109375 46.1875 
Q 21.34375 51.125 25.703125 53.5625 
Q 30.078125 56 35.796875 56 
Q 45.21875 56 50.046875 50.171875 
Q 54.890625 44.34375 54.890625 33.015625 
" id="DejaVuSans-68"/>
      <path d="M 56.203125 29.59375 
L 56.203125 25.203125 
L 14.890625 25.203125 
Q 15.484375 15.921875 20.484375 11.0625 
Q 25.484375 6.203125 34.421875 6.203125 
Q 39.59375 6.203125 44.453125 7.46875 
Q 49.3125 8.734375 54.109375 11.28125 
L 54.109375 2.78125 
Q 49.265625 0.734375 44.1875 -0.34375 
Q 39.109375 -1.421875 33.890625 -1.421875 
Q 20.796875 -1.421875 13.15625 6.1875 
Q 5.515625 13.8125 5.515625 26.8125 
Q 5.515625 40.234375 12.765625 48.109375 
Q 20.015625 56 32.328125 56 
Q 43.359375 56 49.78125 48.890625 
Q 56.203125 41.796875 56.203125 29.59375 
M 47.21875 32.234375 
Q 47.125 39.59375 43.09375 43.984375 
Q 39.0625 48.390625 32.421875 48.390625 
Q 24.90625 48.390625 20.390625 44.140625 
Q 15.875 39.890625 15.1875 32.171875 
z
" id="DejaVuSans-65"/>
      <path id="DejaVuSans-20"/>
      <path d="M 53.515625 70.515625 
L 53.515625 60.890625 
Q 47.90625 63.578125 42.921875 64.890625 
Q 37.9375 66.21875 33.296875 66.21875 
Q 25.25 66.21875 20.875 63.09375 
Q 16.5 59.96875 16.5 54.203125 
Q 16.5 49.359375 19.40625 46.890625 
Q 22.3125 44.4375 30.421875 42.921875 
L 36.375 41.703125 
Q 47.40625 39.59375 52.65625 34.296875 
Q 57.90625 29 57.90625 20.125 
Q 57.90625 9.515625 50.796875 4.046875 
Q 43.703125 -1.421875 29.984375 -1.421875 
Q 24.8125 -1.421875 18.96875 -0.25 
Q 13.140625 0.921875 6.890625 3.21875 
L 6.890625 13.375 
Q 12.890625 10.015625 18.65625 8.296875 
Q 24.421875 6.59375 29.984375 6.59375 
Q 38.421875 6.59375 43.015625 9.90625 
Q 47.609375 13.234375 47.609375 19.390625 
Q 47.609375 24.75 44.3125 27.78125 
Q 41.015625 30.8125 33.5 32.328125 
L 27.484375 33.5 
Q 16.453125 35.6875 11.515625 40.375 
Q 6.59375 45.0625 6.59375 53.421875 
Q 6.59375 63.09375 13.40625 68.65625 
Q 20.21875 74.21875 32.171875 74.21875 
Q 37.3125 74.21875 42.625 73.28125 
Q 47.953125 72.359375 53.515625 70.515625 
" id="DejaVuSans-53"/>
      <path d="M 9.421875 54.6875 
L 18.40625 54.6875 
L 18.40625 0 
L 9.421875 0 
z
M 9.421875 75.984375 
L 18.40625 75.984375 
L 18.40625 64.59375 
L 9.421875 64.59375 
z
" id="DejaVuSans-69"/>
      <path d="M 5.515625 54.6875 
L 48.1875 54.6875 
L 48.1875 46.484375 
L 14.40625 7.171875 
L 48.1875 7.171875 
L 48.1875 0 
L 4.296875 0 
L 4.296875 8.203125 
L 38.09375 47.515625 
L 5.515625 47.515625 
z
" id="DejaVuSans-7a"/>
     </defs>
     <g transform="translate(205.691355 324.284562)scale(0.1 -0.1)">
      <use xlink:href="#DejaVuSans-41"/>
      <use x="68.330078" xlink:href="#DejaVuSans-76"/>
      <use x="127.509766" xlink:href="#DejaVuSans-61"/>
      <use x="188.789062" xlink:href="#DejaVuSans-6c"/>
      <use x="216.572266" xlink:href="#DejaVuSans-61"/>
      <use x="277.851562" xlink:href="#DejaVuSans-6e"/>
      <use x="341.230469" xlink:href="#DejaVuSans-63"/>
      <use x="396.210938" xlink:href="#DejaVuSans-68"/>
      <use x="459.589844" xlink:href="#DejaVuSans-65"/>
      <use x="521.113281" xlink:href="#DejaVuSans-20"/>
      <use x="552.900391" xlink:href="#DejaVuSans-53"/>
      <use x="616.376953" xlink:href="#DejaVuSans-69"/>
      <use x="644.160156" xlink:href="#DejaVuSans-7a"/>
      <use x="696.650391" xlink:href="#DejaVuSans-65"/>
     </g>
    </g>
   </g>
   <g id="matplotlib.axis_2">
    <g id="ytick_1">
     <g id="line2d_29">
      <defs>
       <path d="M 0 0 
L -3.5 0 
" id="m1aa5e86360" style="stroke:#000000;stroke-width:0.8;"/>
      </defs>
      <g>
       <use style="stroke:#000000;stroke-width:0.8;" x="54.470209" xlink:href="#m1aa5e86360" y="296.008"/>
      </g>
     </g>
     <g id="text_6">
      <!-- ${10^{2}}$ -->
      <g transform="translate(29.870209 299.807219)scale(0.1 -0.1)">
       <use transform="translate(0 0.765625)" xlink:href="#DejaVuSans-31"/>
       <use transform="translate(63.623047 0.765625)" xlink:href="#DejaVuSans-30"/>
       <use transform="translate(128.203125 39.046875)scale(0.7)" xlink:href="#DejaVuSans-32"/>
      </g>
     </g>
    </g>
    <g id="ytick_2">
     <g id="line2d_30">
      <g>
       <use style="stroke:#000000;stroke-width:0.8;" x="54.470209" xlink:href="#m1aa5e86360" y="225.210667"/>
      </g>
     </g>
     <g id="text_7">
      <!-- ${10^{3}}$ -->
      <g transform="translate(29.870209 229.009885)scale(0.1 -0.1)">
       <use transform="translate(0 0.765625)" xlink:href="#DejaVuSans-31"/>
       <use transform="translate(63.623047 0.765625)" xlink:href="#DejaVuSans-30"/>
       <use transform="translate(128.203125 39.046875)scale(0.7)" xlink:href="#DejaVuSans-33"/>
      </g>
     </g>
    </g>
    <g id="ytick_3">
     <g id="line2d_31">
      <g>
       <use style="stroke:#000000;stroke-width:0.8;" x="54.470209" xlink:href="#m1aa5e86360" y="154.413333"/>
      </g>
     </g>
     <g id="text_8">
      <!-- ${10^{4}}$ -->
      <g transform="translate(29.870209 158.212552)scale(0.1 -0.1)">
       <use transform="translate(0 0.684375)" xlink:href="#DejaVuSans-31"/>
       <use transform="translate(63.623047 0.684375)" xlink:href="#DejaVuSans-30"/>
       <use transform="translate(128.203125 38.965625)scale(0.7)" xlink:href="#DejaVuSans-34"/>
      </g>
     </g>
    </g>
    <g id="ytick_4">
     <g id="line2d_32">
      <g>
       <use style="stroke:#000000;stroke-width:0.8;" x="54.470209" xlink:href="#m1aa5e86360" y="83.616"/>
      </g>
     </g>
     <g id="text_9">
      <!-- ${10^{5}}$ -->
      <g transform="translate(29.870209 87.415219)scale(0.1 -0.1)">
       <use transform="translate(0 0.684375)" xlink:href="#DejaVuSans-31"/>
       <use transform="translate(63.623047 0.684375)" xlink:href="#DejaVuSans-30"/>
       <use transform="translate(128.203125 38.965625)scale(0.7)" xlink:href="#DejaVuSans-35"/>
      </g>
     </g>
    </g>
    <g id="ytick_5">
     <g id="line2d_33">
      <defs>
       <path d="M 0 0 
L -2 0 
" id="m94db87129e" style="stroke:#000000;stroke-width:0.6;"/>
      </defs>
      <g>
       <use style="stroke:#000000;stroke-width:0.6;" x="54.470209" xlink:href="#m94db87129e" y="274.695879"/>
      </g>
     </g>
    </g>
    <g id="ytick_6">
     <g id="line2d_34">
      <g>
       <use style="stroke:#000000;stroke-width:0.6;" x="54.470209" xlink:href="#m94db87129e" y="262.229087"/>
      </g>
     </g>
    </g>
    <g id="ytick_7">
     <g id="line2d_35">
      <g>
       <use style="stroke:#000000;stroke-width:0.6;" x="54.470209" xlink:href="#m94db87129e" y="253.383758"/>
      </g>
     </g>
    </g>
    <g id="ytick_8">
     <g id="line2d_36">
      <g>
       <use style="stroke:#000000;stroke-width:0.6;" x="54.470209" xlink:href="#m94db87129e" y="246.522788"/>
      </g>
     </g>
    </g>
    <g id="ytick_9">
     <g id="line2d_37">
      <g>
       <use style="stroke:#000000;stroke-width:0.6;" x="54.470209" xlink:href="#m94db87129e" y="240.916967"/>
      </g>
     </g>
    </g>
    <g id="ytick_10">
     <g id="line2d_38">
      <g>
       <use style="stroke:#000000;stroke-width:0.6;" x="54.470209" xlink:href="#m94db87129e" y="236.177312"/>
      </g>
     </g>
    </g>
    <g id="ytick_11">
     <g id="line2d_39">
      <g>
       <use style="stroke:#000000;stroke-width:0.6;" x="54.470209" xlink:href="#m94db87129e" y="232.071637"/>
      </g>
     </g>
    </g>
    <g id="ytick_12">
     <g id="line2d_40">
      <g>
       <use style="stroke:#000000;stroke-width:0.6;" x="54.470209" xlink:href="#m94db87129e" y="228.450175"/>
      </g>
     </g>
    </g>
    <g id="ytick_13">
     <g id="line2d_41">
      <g>
       <use style="stroke:#000000;stroke-width:0.6;" x="54.470209" xlink:href="#m94db87129e" y="203.898546"/>
      </g>
     </g>
    </g>
    <g id="ytick_14">
     <g id="line2d_42">
      <g>
       <use style="stroke:#000000;stroke-width:0.6;" x="54.470209" xlink:href="#m94db87129e" y="191.431754"/>
      </g>
     </g>
    </g>
    <g id="ytick_15">
     <g id="line2d_43">
      <g>
       <use style="stroke:#000000;stroke-width:0.6;" x="54.470209" xlink:href="#m94db87129e" y="182.586425"/>
      </g>
     </g>
    </g>
    <g id="ytick_16">
     <g id="line2d_44">
      <g>
       <use style="stroke:#000000;stroke-width:0.6;" x="54.470209" xlink:href="#m94db87129e" y="175.725454"/>
      </g>
     </g>
    </g>
    <g id="ytick_17">
     <g id="line2d_45">
      <g>
       <use style="stroke:#000000;stroke-width:0.6;" x="54.470209" xlink:href="#m94db87129e" y="170.119633"/>
      </g>
     </g>
    </g>
    <g id="ytick_18">
     <g id="line2d_46">
      <g>
       <use style="stroke:#000000;stroke-width:0.6;" x="54.470209" xlink:href="#m94db87129e" y="165.379979"/>
      </g>
     </g>
    </g>
    <g id="ytick_19">
     <g id="line2d_47">
      <g>
       <use style="stroke:#000000;stroke-width:0.6;" x="54.470209" xlink:href="#m94db87129e" y="161.274304"/>
      </g>
     </g>
    </g>
    <g id="ytick_20">
     <g id="line2d_48">
      <g>
       <use style="stroke:#000000;stroke-width:0.6;" x="54.470209" xlink:href="#m94db87129e" y="157.652842"/>
      </g>
     </g>
    </g>
    <g id="ytick_21">
     <g id="line2d_49">
      <g>
       <use style="stroke:#000000;stroke-width:0.6;" x="54.470209" xlink:href="#m94db87129e" y="133.101212"/>
      </g>
     </g>
    </g>
    <g id="ytick_22">
     <g id="line2d_50">
      <g>
       <use style="stroke:#000000;stroke-width:0.6;" x="54.470209" xlink:href="#m94db87129e" y="120.634421"/>
      </g>
     </g>
    </g>
    <g id="ytick_23">
     <g id="line2d_51">
      <g>
       <use style="stroke:#000000;stroke-width:0.6;" x="54.470209" xlink:href="#m94db87129e" y="111.789091"/>
      </g>
     </g>
    </g>
    <g id="ytick_24">
     <g id="line2d_52">
      <g>
       <use style="stroke:#000000;stroke-width:0.6;" x="54.470209" xlink:href="#m94db87129e" y="104.928121"/>
      </g>
     </g>
    </g>
    <g id="ytick_25">
     <g id="line2d_53">
      <g>
       <use style="stroke:#000000;stroke-width:0.6;" x="54.470209" xlink:href="#m94db87129e" y="99.3223"/>
      </g>
     </g>
    </g>
    <g id="ytick_26">
     <g id="line2d_54">
      <g>
       <use style="stroke:#000000;stroke-width:0.6;" x="54.470209" xlink:href="#m94db87129e" y="94.582646"/>
      </g>
     </g>
    </g>
    <g id="ytick_27">
     <g id="line2d_55">
      <g>
       <use style="stroke:#000000;stroke-width:0.6;" x="54.470209" xlink:href="#m94db87129e" y="90.47697"/>
      </g>
     </g>
    </g>
    <g id="ytick_28">
     <g id="line2d_56">
      <g>
       <use style="stroke:#000000;stroke-width:0.6;" x="54.470209" xlink:href="#m94db87129e" y="86.855508"/>
      </g>
     </g>
    </g>
    <g id="text_10">
     <!-- Number of occurances -->
     <defs>
      <path d="M 9.8125 72.90625 
L 23.09375 72.90625 
L 55.421875 11.921875 
L 55.421875 72.90625 
L 64.984375 72.90625 
L 64.984375 0 
L 51.703125 0 
L 19.390625 60.984375 
L 19.390625 0 
L 9.8125 0 
z
" id="DejaVuSans-4e"/>
      <path d="M 8.5 21.578125 
L 8.5 54.6875 
L 17.484375 54.6875 
L 17.484375 21.921875 
Q 17.484375 14.15625 20.5 10.265625 
Q 23.53125 6.390625 29.59375 6.390625 
Q 36.859375 6.390625 41.078125 11.03125 
Q 45.3125 15.671875 45.3125 23.6875 
L 45.3125 54.6875 
L 54.296875 54.6875 
L 54.296875 0 
L 45.3125 0 
L 45.3125 8.40625 
Q 42.046875 3.421875 37.71875 1 
Q 33.40625 -1.421875 27.6875 -1.421875 
Q 18.265625 -1.421875 13.375 4.4375 
Q 8.5 10.296875 8.5 21.578125 
M 31.109375 56 
z
" id="DejaVuSans-75"/>
      <path d="M 52 44.1875 
Q 55.375 50.25 60.0625 53.125 
Q 64.75 56 71.09375 56 
Q 79.640625 56 84.28125 50.015625 
Q 88.921875 44.046875 88.921875 33.015625 
L 88.921875 0 
L 79.890625 0 
L 79.890625 32.71875 
Q 79.890625 40.578125 77.09375 44.375 
Q 74.3125 48.1875 68.609375 48.1875 
Q 61.625 48.1875 57.5625 43.546875 
Q 53.515625 38.921875 53.515625 30.90625 
L 53.515625 0 
L 44.484375 0 
L 44.484375 32.71875 
Q 44.484375 40.625 41.703125 44.40625 
Q 38.921875 48.1875 33.109375 48.1875 
Q 26.21875 48.1875 22.15625 43.53125 
Q 18.109375 38.875 18.109375 30.90625 
L 18.109375 0 
L 9.078125 0 
L 9.078125 54.6875 
L 18.109375 54.6875 
L 18.109375 46.1875 
Q 21.1875 51.21875 25.484375 53.609375 
Q 29.78125 56 35.6875 56 
Q 41.65625 56 45.828125 52.96875 
Q 50 49.953125 52 44.1875 
" id="DejaVuSans-6d"/>
      <path d="M 48.6875 27.296875 
Q 48.6875 37.203125 44.609375 42.84375 
Q 40.53125 48.484375 33.40625 48.484375 
Q 26.265625 48.484375 22.1875 42.84375 
Q 18.109375 37.203125 18.109375 27.296875 
Q 18.109375 17.390625 22.1875 11.75 
Q 26.265625 6.109375 33.40625 6.109375 
Q 40.53125 6.109375 44.609375 11.75 
Q 48.6875 17.390625 48.6875 27.296875 
M 18.109375 46.390625 
Q 20.953125 51.265625 25.265625 53.625 
Q 29.59375 56 35.59375 56 
Q 45.5625 56 51.78125 48.09375 
Q 58.015625 40.1875 58.015625 27.296875 
Q 58.015625 14.40625 51.78125 6.484375 
Q 45.5625 -1.421875 35.59375 -1.421875 
Q 29.59375 -1.421875 25.265625 0.953125 
Q 20.953125 3.328125 18.109375 8.203125 
L 18.109375 0 
L 9.078125 0 
L 9.078125 75.984375 
L 18.109375 75.984375 
z
" id="DejaVuSans-62"/>
      <path d="M 41.109375 46.296875 
Q 39.59375 47.171875 37.8125 47.578125 
Q 36.03125 48 33.890625 48 
Q 26.265625 48 22.1875 43.046875 
Q 18.109375 38.09375 18.109375 28.8125 
L 18.109375 0 
L 9.078125 0 
L 9.078125 54.6875 
L 18.109375 54.6875 
L 18.109375 46.1875 
Q 20.953125 51.171875 25.484375 53.578125 
Q 30.03125 56 36.53125 56 
Q 37.453125 56 38.578125 55.875 
Q 39.703125 55.765625 41.0625 55.515625 
z
" id="DejaVuSans-72"/>
      <path d="M 30.609375 48.390625 
Q 23.390625 48.390625 19.1875 42.75 
Q 14.984375 37.109375 14.984375 27.296875 
Q 14.984375 17.484375 19.15625 11.84375 
Q 23.34375 6.203125 30.609375 6.203125 
Q 37.796875 6.203125 41.984375 11.859375 
Q 46.1875 17.53125 46.1875 27.296875 
Q 46.1875 37.015625 41.984375 42.703125 
Q 37.796875 48.390625 30.609375 48.390625 
M 30.609375 56 
Q 42.328125 56 49.015625 48.375 
Q 55.71875 40.765625 55.71875 27.296875 
Q 55.71875 13.875 49.015625 6.21875 
Q 42.328125 -1.421875 30.609375 -1.421875 
Q 18.84375 -1.421875 12.171875 6.21875 
Q 5.515625 13.875 5.515625 27.296875 
Q 5.515625 40.765625 12.171875 48.375 
Q 18.84375 56 30.609375 56 
" id="DejaVuSans-6f"/>
      <path d="M 37.109375 75.984375 
L 37.109375 68.5 
L 28.515625 68.5 
Q 23.6875 68.5 21.796875 66.546875 
Q 19.921875 64.59375 19.921875 59.515625 
L 19.921875 54.6875 
L 34.71875 54.6875 
L 34.71875 47.703125 
L 19.921875 47.703125 
L 19.921875 0 
L 10.890625 0 
L 10.890625 47.703125 
L 2.296875 47.703125 
L 2.296875 54.6875 
L 10.890625 54.6875 
L 10.890625 58.5 
Q 10.890625 67.625 15.140625 71.796875 
Q 19.390625 75.984375 28.609375 75.984375 
z
" id="DejaVuSans-66"/>
      <path d="M 44.28125 53.078125 
L 44.28125 44.578125 
Q 40.484375 46.53125 36.375 47.5 
Q 32.28125 48.484375 27.875 48.484375 
Q 21.1875 48.484375 17.84375 46.4375 
Q 14.5 44.390625 14.5 40.28125 
Q 14.5 37.15625 16.890625 35.375 
Q 19.28125 33.59375 26.515625 31.984375 
L 29.59375 31.296875 
Q 39.15625 29.25 43.1875 25.515625 
Q 47.21875 21.78125 47.21875 15.09375 
Q 47.21875 7.46875 41.1875 3.015625 
Q 35.15625 -1.421875 24.609375 -1.421875 
Q 20.21875 -1.421875 15.453125 -0.5625 
Q 10.6875 0.296875 5.421875 2 
L 5.421875 11.28125 
Q 10.40625 8.6875 15.234375 7.390625 
Q 20.0625 6.109375 24.8125 6.109375 
Q 31.15625 6.109375 34.5625 8.28125 
Q 37.984375 10.453125 37.984375 14.40625 
Q 37.984375 18.0625 35.515625 20.015625 
Q 33.0625 21.96875 24.703125 23.78125 
L 21.578125 24.515625 
Q 13.234375 26.265625 9.515625 29.90625 
Q 5.8125 33.546875 5.8125 39.890625 
Q 5.8125 47.609375 11.28125 51.796875 
Q 16.75 56 26.8125 56 
Q 31.78125 56 36.171875 55.265625 
Q 40.578125 54.546875 44.28125 53.078125 
" id="DejaVuSans-73"/>
     </defs>
     <g transform="translate(23.790522 246.340906)rotate(-90)scale(0.1 -0.1)">
      <use xlink:href="#DejaVuSans-4e"/>
      <use x="74.804688" xlink:href="#DejaVuSans-75"/>
      <use x="138.183594" xlink:href="#DejaVuSans-6d"/>
      <use x="235.595703" xlink:href="#DejaVuSans-62"/>
      <use x="299.072266" xlink:href="#DejaVuSans-65"/>
      <use x="360.595703" xlink:href="#DejaVuSans-72"/>
      <use x="401.708984" xlink:href="#DejaVuSans-20"/>
      <use x="433.496094" xlink:href="#DejaVuSans-6f"/>
      <use x="494.677734" xlink:href="#DejaVuSans-66"/>
      <use x="529.882812" xlink:href="#DejaVuSans-20"/>
      <use x="561.669922" xlink:href="#DejaVuSans-6f"/>
      <use x="622.851562" xlink:href="#DejaVuSans-63"/>
      <use x="677.832031" xlink:href="#DejaVuSans-63"/>
      <use x="732.8125" xlink:href="#DejaVuSans-75"/>
      <use x="796.191406" xlink:href="#DejaVuSans-72"/>
      <use x="837.304688" xlink:href="#DejaVuSans-61"/>
      <use x="898.583984" xlink:href="#DejaVuSans-6e"/>
      <use x="961.962891" xlink:href="#DejaVuSans-63"/>
      <use x="1016.943359" xlink:href="#DejaVuSans-65"/>
      <use x="1078.466797" xlink:href="#DejaVuSans-73"/>
     </g>
    </g>
   </g>
   <g id="line2d_57">
    <defs>
     <path d="M 0 1.5 
C 0.397805 1.5 0.77937 1.341951 1.06066 1.06066 
C 1.341951 0.77937 1.5 0.397805 1.5 0 
C 1.5 -0.397805 1.341951 -0.77937 1.06066 -1.06066 
C 0.77937 -1.341951 0.397805 -1.5 0 -1.5 
C -0.397805 -1.5 -0.77937 -1.341951 -1.06066 -1.06066 
C -1.341951 -0.77937 -1.5 -0.397805 -1.5 0 
C -1.5 0.397805 -1.341951 0.77937 -1.06066 1.06066 
C -0.77937 1.341951 -0.397805 1.5 0 1.5 
z
" id="mb9c69451dd" style="stroke:#0000ff;"/>
    </defs>
    <g clip-path="url(#p44cec0fda8)">
     <use style="fill:#0000ff;stroke:#0000ff;" x="5.649953" xlink:href="#mb9c69451dd" y="30.595318"/>
     <use style="fill:#0000ff;stroke:#0000ff;" x="77.029625" xlink:href="#mb9c69451dd" y="98.330981"/>
     <use style="fill:#0000ff;stroke:#0000ff;" x="104.855148" xlink:href="#mb9c69451dd" y="116.579648"/>
     <use style="fill:#0000ff;stroke:#0000ff;" x="123.216994" xlink:href="#mb9c69451dd" y="128.470243"/>
     <use style="fill:#0000ff;stroke:#0000ff;" x="136.943662" xlink:href="#mb9c69451dd" y="137.372487"/>
     <use style="fill:#0000ff;stroke:#0000ff;" x="147.909862" xlink:href="#mb9c69451dd" y="143.218778"/>
     <use style="fill:#0000ff;stroke:#0000ff;" x="157.042112" xlink:href="#mb9c69451dd" y="149.591212"/>
     <use style="fill:#0000ff;stroke:#0000ff;" x="164.866825" xlink:href="#mb9c69451dd" y="154.201908"/>
     <use style="fill:#0000ff;stroke:#0000ff;" x="171.711954" xlink:href="#mb9c69451dd" y="158.681076"/>
     <use style="fill:#0000ff;stroke:#0000ff;" x="177.795704" xlink:href="#mb9c69451dd" y="162.561498"/>
     <use style="fill:#0000ff;stroke:#0000ff;" x="183.270623" xlink:href="#mb9c69451dd" y="165.90717"/>
     <use style="fill:#0000ff;stroke:#0000ff;" x="188.24756" xlink:href="#mb9c69451dd" y="168.599972"/>
     <use style="fill:#0000ff;stroke:#0000ff;" x="192.8096" xlink:href="#mb9c69451dd" y="171.11962"/>
     <use style="fill:#0000ff;stroke:#0000ff;" x="197.020626" xlink:href="#mb9c69451dd" y="174.319156"/>
     <use style="fill:#0000ff;stroke:#0000ff;" x="200.930816" xlink:href="#mb9c69451dd" y="177.231443"/>
     <use style="fill:#0000ff;stroke:#0000ff;" x="204.580302" xlink:href="#mb9c69451dd" y="179.322329"/>
     <use style="fill:#0000ff;stroke:#0000ff;" x="208.001686" xlink:href="#mb9c69451dd" y="180.70794"/>
     <use style="fill:#0000ff;stroke:#0000ff;" x="211.221813" xlink:href="#mb9c69451dd" y="182.973183"/>
     <use style="fill:#0000ff;stroke:#0000ff;" x="214.263048" xlink:href="#mb9c69451dd" y="186.126324"/>
     <use style="fill:#0000ff;stroke:#0000ff;" x="217.144229" xlink:href="#mb9c69451dd" y="186.903662"/>
     <use style="fill:#0000ff;stroke:#0000ff;" x="219.881361" xlink:href="#mb9c69451dd" y="188.296963"/>
     <use style="fill:#0000ff;stroke:#0000ff;" x="222.488166" xlink:href="#mb9c69451dd" y="190.692538"/>
     <use style="fill:#0000ff;stroke:#0000ff;" x="224.976492" xlink:href="#mb9c69451dd" y="190.702545"/>
     <use style="fill:#0000ff;stroke:#0000ff;" x="227.356643" xlink:href="#mb9c69451dd" y="193.356045"/>
     <use style="fill:#0000ff;stroke:#0000ff;" x="229.637633" xlink:href="#mb9c69451dd" y="194.107083"/>
     <use style="fill:#0000ff;stroke:#0000ff;" x="231.827396" xlink:href="#mb9c69451dd" y="196.033358"/>
     <use style="fill:#0000ff;stroke:#0000ff;" x="233.932949" xlink:href="#mb9c69451dd" y="196.452831"/>
     <use style="fill:#0000ff;stroke:#0000ff;" x="235.960529" xlink:href="#mb9c69451dd" y="198.05027"/>
     <use style="fill:#0000ff;stroke:#0000ff;" x="237.915706" xlink:href="#mb9c69451dd" y="200.359185"/>
     <use style="fill:#0000ff;stroke:#0000ff;" x="239.803473" xlink:href="#mb9c69451dd" y="200.606812"/>
     <use style="fill:#0000ff;stroke:#0000ff;" x="241.628324" xlink:href="#mb9c69451dd" y="202.237765"/>
     <use style="fill:#0000ff;stroke:#0000ff;" x="243.394318" xlink:href="#mb9c69451dd" y="204.394474"/>
     <use style="fill:#0000ff;stroke:#0000ff;" x="248.374305" xlink:href="#mb9c69451dd" y="205.282075"/>
     <use style="fill:#0000ff;stroke:#0000ff;" x="249.9385" xlink:href="#mb9c69451dd" y="205.866511"/>
     <use style="fill:#0000ff;stroke:#0000ff;" x="245.105132" xlink:href="#mb9c69451dd" y="205.899307"/>
     <use style="fill:#0000ff;stroke:#0000ff;" x="246.764112" xlink:href="#mb9c69451dd" y="205.932139"/>
     <use style="fill:#0000ff;stroke:#0000ff;" x="251.459251" xlink:href="#mb9c69451dd" y="208.357637"/>
     <use style="fill:#0000ff;stroke:#0000ff;" x="254.379631" xlink:href="#mb9c69451dd" y="209.590579"/>
     <use style="fill:#0000ff;stroke:#0000ff;" x="255.783419" xlink:href="#mb9c69451dd" y="209.813383"/>
     <use style="fill:#0000ff;stroke:#0000ff;" x="252.938908" xlink:href="#mb9c69451dd" y="210.778739"/>
     <use style="fill:#0000ff;stroke:#0000ff;" x="257.152117" xlink:href="#mb9c69451dd" y="210.971631"/>
     <use style="fill:#0000ff;stroke:#0000ff;" x="258.487437" xlink:href="#mb9c69451dd" y="212.437933"/>
     <use style="fill:#0000ff;stroke:#0000ff;" x="259.790968" xlink:href="#mb9c69451dd" y="212.928912"/>
     <use style="fill:#0000ff;stroke:#0000ff;" x="262.308477" xlink:href="#mb9c69451dd" y="214.320984"/>
     <use style="fill:#0000ff;stroke:#0000ff;" x="261.064189" xlink:href="#mb9c69451dd" y="215.240832"/>
     <use style="fill:#0000ff;stroke:#0000ff;" x="263.525118" xlink:href="#mb9c69451dd" y="215.824367"/>
     <use style="fill:#0000ff;stroke:#0000ff;" x="264.715314" xlink:href="#mb9c69451dd" y="216.465427"/>
     <use style="fill:#0000ff;stroke:#0000ff;" x="265.880191" xlink:href="#mb9c69451dd" y="217.524552"/>
     <use style="fill:#0000ff;stroke:#0000ff;" x="267.020802" xlink:href="#mb9c69451dd" y="218.275992"/>
     <use style="fill:#0000ff;stroke:#0000ff;" x="269.233132" xlink:href="#mb9c69451dd" y="219.147067"/>
     <use style="fill:#0000ff;stroke:#0000ff;" x="268.138139" xlink:href="#mb9c69451dd" y="219.528074"/>
     <use style="fill:#0000ff;stroke:#0000ff;" x="270.306658" xlink:href="#mb9c69451dd" y="219.733225"/>
     <use style="fill:#0000ff;stroke:#0000ff;" x="271.359541" xlink:href="#mb9c69451dd" y="221.181955"/>
     <use style="fill:#0000ff;stroke:#0000ff;" x="272.392562" xlink:href="#mb9c69451dd" y="221.344208"/>
     <use style="fill:#0000ff;stroke:#0000ff;" x="274.401916" xlink:href="#mb9c69451dd" y="222.617439"/>
     <use style="fill:#0000ff;stroke:#0000ff;" x="275.379603" xlink:href="#mb9c69451dd" y="223.652011"/>
     <use style="fill:#0000ff;stroke:#0000ff;" x="273.406455" xlink:href="#mb9c69451dd" y="223.886721"/>
     <use style="fill:#0000ff;stroke:#0000ff;" x="280.022171" xlink:href="#mb9c69451dd" y="225.087924"/>
     <use style="fill:#0000ff;stroke:#0000ff;" x="279.124613" xlink:href="#mb9c69451dd" y="225.303046"/>
     <use style="fill:#0000ff;stroke:#0000ff;" x="278.212097" xlink:href="#mb9c69451dd" y="225.395704"/>
     <use style="fill:#0000ff;stroke:#0000ff;" x="276.340139" xlink:href="#mb9c69451dd" y="225.89465"/>
     <use style="fill:#0000ff;stroke:#0000ff;" x="280.905255" xlink:href="#mb9c69451dd" y="226.020662"/>
     <use style="fill:#0000ff;stroke:#0000ff;" x="277.284117" xlink:href="#mb9c69451dd" y="226.052246"/>
     <use style="fill:#0000ff;stroke:#0000ff;" x="282.629812" xlink:href="#mb9c69451dd" y="226.147193"/>
     <use style="fill:#0000ff;stroke:#0000ff;" x="285.118901" xlink:href="#mb9c69451dd" y="227.408946"/>
     <use style="fill:#0000ff;stroke:#0000ff;" x="281.774322" xlink:href="#mb9c69451dd" y="227.774392"/>
     <use style="fill:#0000ff;stroke:#0000ff;" x="283.472143" xlink:href="#mb9c69451dd" y="228.862891"/>
     <use style="fill:#0000ff;stroke:#0000ff;" x="284.301712" xlink:href="#mb9c69451dd" y="229.598749"/>
     <use style="fill:#0000ff;stroke:#0000ff;" x="287.499749" xlink:href="#mb9c69451dd" y="229.705324"/>
     <use style="fill:#0000ff;stroke:#0000ff;" x="286.717578" xlink:href="#mb9c69451dd" y="230.027284"/>
     <use style="fill:#0000ff;stroke:#0000ff;" x="289.031349" xlink:href="#mb9c69451dd" y="231.0139"/>
     <use style="fill:#0000ff;stroke:#0000ff;" x="285.924073" xlink:href="#mb9c69451dd" y="232.110095"/>
     <use style="fill:#0000ff;stroke:#0000ff;" x="288.270904" xlink:href="#mb9c69451dd" y="232.110095"/>
     <use style="fill:#0000ff;stroke:#0000ff;" x="289.781379" xlink:href="#mb9c69451dd" y="232.341856"/>
     <use style="fill:#0000ff;stroke:#0000ff;" x="291.251305" xlink:href="#mb9c69451dd" y="232.771344"/>
     <use style="fill:#0000ff;stroke:#0000ff;" x="291.971732" xlink:href="#mb9c69451dd" y="233.326787"/>
     <use style="fill:#0000ff;stroke:#0000ff;" x="292.682803" xlink:href="#mb9c69451dd" y="233.892448"/>
     <use style="fill:#0000ff;stroke:#0000ff;" x="294.07783" xlink:href="#mb9c69451dd" y="234.344315"/>
     <use style="fill:#0000ff;stroke:#0000ff;" x="290.521274" xlink:href="#mb9c69451dd" y="234.551924"/>
     <use style="fill:#0000ff;stroke:#0000ff;" x="296.105916" xlink:href="#mb9c69451dd" y="234.887044"/>
     <use style="fill:#0000ff;stroke:#0000ff;" x="299.327574" xlink:href="#mb9c69451dd" y="235.098363"/>
     <use style="fill:#0000ff;stroke:#0000ff;" x="293.384759" xlink:href="#mb9c69451dd" y="235.1833"/>
     <use style="fill:#0000ff;stroke:#0000ff;" x="298.061564" xlink:href="#mb9c69451dd" y="235.697904"/>
     <use style="fill:#0000ff;stroke:#0000ff;" x="298.698227" xlink:href="#mb9c69451dd" y="236.045822"/>
     <use style="fill:#0000ff;stroke:#0000ff;" x="294.762239" xlink:href="#mb9c69451dd" y="236.221268"/>
     <use style="fill:#0000ff;stroke:#0000ff;" x="297.41741" xlink:href="#mb9c69451dd" y="236.441993"/>
     <use style="fill:#0000ff;stroke:#0000ff;" x="296.76559" xlink:href="#mb9c69451dd" y="236.798483"/>
     <use style="fill:#0000ff;stroke:#0000ff;" x="295.438199" xlink:href="#mb9c69451dd" y="237.068589"/>
     <use style="fill:#0000ff;stroke:#0000ff;" x="300.564974" xlink:href="#mb9c69451dd" y="238.31432"/>
     <use style="fill:#0000ff;stroke:#0000ff;" x="302.958923" xlink:href="#mb9c69451dd" y="239.077073"/>
     <use style="fill:#0000ff;stroke:#0000ff;" x="299.949769" xlink:href="#mb9c69451dd" y="239.222219"/>
     <use style="fill:#0000ff;stroke:#0000ff;" x="304.11776" xlink:href="#mb9c69451dd" y="239.270754"/>
     <use style="fill:#0000ff;stroke:#0000ff;" x="301.173344" xlink:href="#mb9c69451dd" y="239.465664"/>
     <use style="fill:#0000ff;stroke:#0000ff;" x="303.541407" xlink:href="#mb9c69451dd" y="241.122632"/>
     <use style="fill:#0000ff;stroke:#0000ff;" x="305.252582" xlink:href="#mb9c69451dd" y="241.381664"/>
     <use style="fill:#0000ff;stroke:#0000ff;" x="306.364362" xlink:href="#mb9c69451dd" y="241.433733"/>
     <use style="fill:#0000ff;stroke:#0000ff;" x="304.688111" xlink:href="#mb9c69451dd" y="241.906368"/>
     <use style="fill:#0000ff;stroke:#0000ff;" x="302.370176" xlink:href="#mb9c69451dd" y="242.118782"/>
     <use style="fill:#0000ff;stroke:#0000ff;" x="301.77503" xlink:href="#mb9c69451dd" y="242.656329"/>
     <use style="fill:#0000ff;stroke:#0000ff;" x="305.811293" xlink:href="#mb9c69451dd" y="242.928668"/>
    </g>
   </g>
   <g id="line2d_58">
    <path clip-path="url(#p44cec0fda8)" d="M 77.029625 99.34005 
L 104.855148 116.719085 
L 123.216994 128.187374 
L 136.943662 136.760662 
L 147.909862 143.609841 
L 157.042112 149.313585 
L 164.866825 154.20068 
L 171.711954 158.475954 
L 177.795704 162.275692 
L 183.270623 165.695172 
L 188.24756 168.803626 
L 192.8096 171.652947 
L 197.020626 174.283034 
L 200.930816 176.725228 
L 204.580302 179.004594 
L 208.001686 181.141494 
L 211.221813 183.152693 
L 214.263048 185.052163 
L 217.144229 186.851667 
L 219.881361 188.561202 
L 222.488166 190.189339 
L 224.976492 191.743477 
L 227.356643 193.230052 
L 229.637633 194.654694 
L 231.827396 196.022358 
L 233.932949 197.337426 
L 235.960529 198.603796 
L 237.915706 199.824944 
L 239.803473 201.00399 
L 241.628324 202.14374 
L 243.394318 203.24673 
L 248.374305 206.357089 
L 249.9385 207.334041 
L 245.105132 204.315256 
L 246.764112 205.351408 
L 251.459251 208.283859 
L 254.379631 210.107846 
L 255.783419 210.984611 
L 252.938908 209.20801 
L 257.152117 211.839462 
L 258.487437 212.673465 
L 259.790968 213.487613 
L 262.308477 215.059978 
L 261.064189 214.282831 
L 263.525118 215.819858 
L 264.715314 216.563221 
L 265.880191 217.29077 
L 267.020802 218.003163 
L 269.233132 219.384922 
L 268.138139 218.70102 
L 270.306658 220.055416 
L 271.359541 220.713017 
L 272.392562 221.358212 
L 274.401916 222.613198 
L 275.379603 223.223833 
L 273.406455 221.991461 
L 280.022171 226.12345 
L 279.124613 225.562861 
L 278.212097 224.99293 
L 276.340139 223.823758 
L 280.905255 226.674999 
L 277.284117 224.413339 
L 282.629812 227.752109 
L 285.118901 229.306723 
L 281.774322 227.217794 
L 283.472143 228.278205 
L 284.301712 228.79633 
L 287.499749 230.793734 
L 286.717578 230.305212 
L 289.031349 231.750328 
L 285.924073 229.809611 
L 288.270904 231.275375 
L 289.781379 232.218775 
L 291.251305 233.13685 
L 291.971732 233.586808 
L 292.682803 234.030923 
L 294.07783 234.902217 
L 290.521274 232.680893 
L 296.105916 236.168902 
L 299.327574 238.181059 
L 293.384759 234.469345 
L 298.061564 237.390344 
L 298.698227 237.787987 
L 294.762239 235.329679 
L 297.41741 236.988025 
L 296.76559 236.580916 
L 295.438199 235.751865 
L 300.564974 238.953904 
L 302.958923 240.449096 
L 299.949769 238.569664 
L 304.11776 241.172874 
L 301.173344 239.333875 
L 303.541407 240.8129 
L 305.252582 241.881651 
L 306.364362 242.576037 
L 304.688111 241.529098 
L 302.370176 240.081382 
L 301.77503 239.70967 
L 305.811293 242.230606 
" style="fill:none;stroke:#ff0000;stroke-linecap:square;stroke-width:1.5;"/>
   </g>
   <g id="patch_3">
    <path d="M 54.470209 296.008 
L 54.470209 83.616 
" style="fill:none;stroke:#000000;stroke-linecap:square;stroke-linejoin:miter;stroke-width:0.8;"/>
   </g>
   <g id="patch_4">
    <path d="M 432.73125 296.008 
L 432.73125 83.616 
" style="fill:none;stroke:#000000;stroke-linecap:square;stroke-linejoin:miter;stroke-width:0.8;"/>
   </g>
   <g id="patch_5">
    <path d="M 54.470209 296.008 
L 432.73125 296.008 
" style="fill:none;stroke:#000000;stroke-linecap:square;stroke-linejoin:miter;stroke-width:0.8;"/>
   </g>
   <g id="patch_6">
    <path d="M 54.470209 83.616 
L 432.73125 83.616 
" style="fill:none;stroke:#000000;stroke-linecap:square;stroke-linejoin:miter;stroke-width:0.8;"/>
   </g>
   <g id="text_11">
    <!-- Avalanche sizes in a sandpile -->
    <defs>
     <path d="M 45.40625 46.390625 
L 45.40625 75.984375 
L 54.390625 75.984375 
L 54.390625 0 
L 45.40625 0 
L 45.40625 8.203125 
Q 42.578125 3.328125 38.25 0.953125 
Q 33.9375 -1.421875 27.875 -1.421875 
Q 17.96875 -1.421875 11.734375 6.484375 
Q 5.515625 14.40625 5.515625 27.296875 
Q 5.515625 40.1875 11.734375 48.09375 
Q 17.96875 56 27.875 56 
Q 33.9375 56 38.25 53.625 
Q 42.578125 51.265625 45.40625 46.390625 
M 14.796875 27.296875 
Q 14.796875 17.390625 18.875 11.75 
Q 22.953125 6.109375 30.078125 6.109375 
Q 37.203125 6.109375 41.296875 11.75 
Q 45.40625 17.390625 45.40625 27.296875 
Q 45.40625 37.203125 41.296875 42.84375 
Q 37.203125 48.484375 30.078125 48.484375 
Q 22.953125 48.484375 18.875 42.84375 
Q 14.796875 37.203125 14.796875 27.296875 
" id="DejaVuSans-64"/>
     <path d="M 18.109375 8.203125 
L 18.109375 -20.796875 
L 9.078125 -20.796875 
L 9.078125 54.6875 
L 18.109375 54.6875 
L 18.109375 46.390625 
Q 20.953125 51.265625 25.265625 53.625 
Q 29.59375 56 35.59375 56 
Q 45.5625 56 51.78125 48.09375 
Q 58.015625 40.1875 58.015625 27.296875 
Q 58.015625 14.40625 51.78125 6.484375 
Q 45.5625 -1.421875 35.59375 -1.421875 
Q 29.59375 -1.421875 25.265625 0.953125 
Q 20.953125 3.328125 18.109375 8.203125 
M 48.6875 27.296875 
Q 48.6875 37.203125 44.609375 42.84375 
Q 40.53125 48.484375 33.40625 48.484375 
Q 26.265625 48.484375 22.1875 42.84375 
Q 18.109375 37.203125 18.109375 27.296875 
Q 18.109375 17.390625 22.1875 11.75 
Q 26.265625 6.109375 33.40625 6.109375 
Q 40.53125 6.109375 44.609375 11.75 
Q 48.6875 17.390625 48.6875 27.296875 
" id="DejaVuSans-70"/>
    </defs>
    <g transform="translate(95.678305 32.46642)scale(0.2016 -0.2016)">
     <use xlink:href="#DejaVuSans-41"/>
     <use x="68.330078" xlink:href="#DejaVuSans-76"/>
     <use x="127.509766" xlink:href="#DejaVuSans-61"/>
     <use x="188.789062" xlink:href="#DejaVuSans-6c"/>
     <use x="216.572266" xlink:href="#DejaVuSans-61"/>
     <use x="277.851562" xlink:href="#DejaVuSans-6e"/>
     <use x="341.230469" xlink:href="#DejaVuSans-63"/>
     <use x="396.210938" xlink:href="#DejaVuSans-68"/>
     <use x="459.589844" xlink:href="#DejaVuSans-65"/>
     <use x="521.113281" xlink:href="#DejaVuSans-20"/>
     <use x="552.900391" xlink:href="#DejaVuSans-73"/>
     <use x="605" xlink:href="#DejaVuSans-69"/>
     <use x="632.783203" xlink:href="#DejaVuSans-7a"/>
     <use x="685.273438" xlink:href="#DejaVuSans-65"/>
     <use x="746.796875" xlink:href="#DejaVuSans-73"/>
     <use x="798.896484" xlink:href="#DejaVuSans-20"/>
     <use x="830.683594" xlink:href="#DejaVuSans-69"/>
     <use x="858.466797" xlink:href="#DejaVuSans-6e"/>
     <use x="921.845703" xlink:href="#DejaVuSans-20"/>
     <use x="953.632812" xlink:href="#DejaVuSans-61"/>
     <use x="1014.912109" xlink:href="#DejaVuSans-20"/>
     <use x="1046.699219" xlink:href="#DejaVuSans-73"/>
     <use x="1098.798828" xlink:href="#DejaVuSans-61"/>
     <use x="1160.078125" xlink:href="#DejaVuSans-6e"/>
     <use x="1223.457031" xlink:href="#DejaVuSans-64"/>
     <use x="1286.933594" xlink:href="#DejaVuSans-70"/>
     <use x="1350.410156" xlink:href="#DejaVuSans-69"/>
     <use x="1378.193359" xlink:href="#DejaVuSans-6c"/>
     <use x="1405.976562" xlink:href="#DejaVuSans-65"/>
    </g>
    <!--  of different sizes -->
    <defs>
     <path d="M 18.3125 70.21875 
L 18.3125 54.6875 
L 36.8125 54.6875 
L 36.8125 47.703125 
L 18.3125 47.703125 
L 18.3125 18.015625 
Q 18.3125 11.328125 20.140625 9.421875 
Q 21.96875 7.515625 27.59375 7.515625 
L 36.8125 7.515625 
L 36.8125 0 
L 27.59375 0 
Q 17.1875 0 13.234375 3.875 
Q 9.28125 7.765625 9.28125 18.015625 
L 9.28125 47.703125 
L 2.6875 47.703125 
L 2.6875 54.6875 
L 9.28125 54.6875 
L 9.28125 70.21875 
z
" id="DejaVuSans-74"/>
    </defs>
    <g transform="translate(156.296905 55.04121)scale(0.2016 -0.2016)">
     <use xlink:href="#DejaVuSans-20"/>
     <use x="31.787109" xlink:href="#DejaVuSans-6f"/>
     <use x="92.96875" xlink:href="#DejaVuSans-66"/>
     <use x="128.173828" xlink:href="#DejaVuSans-20"/>
     <use x="159.960938" xlink:href="#DejaVuSans-64"/>
     <use x="223.4375" xlink:href="#DejaVuSans-69"/>
     <use x="251.220703" xlink:href="#DejaVuSans-66"/>
     <use x="286.425781" xlink:href="#DejaVuSans-66"/>
     <use x="321.630859" xlink:href="#DejaVuSans-65"/>
     <use x="383.154297" xlink:href="#DejaVuSans-72"/>
     <use x="424.236328" xlink:href="#DejaVuSans-65"/>
     <use x="485.759766" xlink:href="#DejaVuSans-6e"/>
     <use x="549.138672" xlink:href="#DejaVuSans-74"/>
     <use x="588.347656" xlink:href="#DejaVuSans-20"/>
     <use x="620.134766" xlink:href="#DejaVuSans-73"/>
     <use x="672.234375" xlink:href="#DejaVuSans-69"/>
     <use x="700.017578" xlink:href="#DejaVuSans-7a"/>
     <use x="752.507812" xlink:href="#DejaVuSans-65"/>
     <use x="814.03125" xlink:href="#DejaVuSans-73"/>
    </g>
    <!--  Finding the power relation coefficient -->
    <defs>
     <path d="M 9.8125 72.90625 
L 51.703125 72.90625 
L 51.703125 64.59375 
L 19.671875 64.59375 
L 19.671875 43.109375 
L 48.578125 43.109375 
L 48.578125 34.8125 
L 19.671875 34.8125 
L 19.671875 0 
L 9.8125 0 
z
" id="DejaVuSans-46"/>
     <path d="M 45.40625 27.984375 
Q 45.40625 37.75 41.375 43.109375 
Q 37.359375 48.484375 30.078125 48.484375 
Q 22.859375 48.484375 18.828125 43.109375 
Q 14.796875 37.75 14.796875 27.984375 
Q 14.796875 18.265625 18.828125 12.890625 
Q 22.859375 7.515625 30.078125 7.515625 
Q 37.359375 7.515625 41.375 12.890625 
Q 45.40625 18.265625 45.40625 27.984375 
M 54.390625 6.78125 
Q 54.390625 -7.171875 48.1875 -13.984375 
Q 42 -20.796875 29.203125 -20.796875 
Q 24.46875 -20.796875 20.265625 -20.09375 
Q 16.0625 -19.390625 12.109375 -17.921875 
L 12.109375 -9.1875 
Q 16.0625 -11.328125 19.921875 -12.34375 
Q 23.78125 -13.375 27.78125 -13.375 
Q 36.625 -13.375 41.015625 -8.765625 
Q 45.40625 -4.15625 45.40625 5.171875 
L 45.40625 9.625 
Q 42.625 4.78125 38.28125 2.390625 
Q 33.9375 0 27.875 0 
Q 17.828125 0 11.671875 7.65625 
Q 5.515625 15.328125 5.515625 27.984375 
Q 5.515625 40.671875 11.671875 48.328125 
Q 17.828125 56 27.875 56 
Q 33.9375 56 38.28125 53.609375 
Q 42.625 51.21875 45.40625 46.390625 
L 45.40625 54.6875 
L 54.390625 54.6875 
z
" id="DejaVuSans-67"/>
     <path d="M 4.203125 54.6875 
L 13.1875 54.6875 
L 24.421875 12.015625 
L 35.59375 54.6875 
L 46.1875 54.6875 
L 57.421875 12.015625 
L 68.609375 54.6875 
L 77.59375 54.6875 
L 63.28125 0 
L 52.6875 0 
L 40.921875 44.828125 
L 29.109375 0 
L 18.5 0 
z
" id="DejaVuSans-77"/>
    </defs>
    <g transform="translate(51.59878 77.616)scale(0.2016 -0.2016)">
     <use xlink:href="#DejaVuSans-20"/>
     <use x="31.787109" xlink:href="#DejaVuSans-46"/>
     <use x="89.197266" xlink:href="#DejaVuSans-69"/>
     <use x="116.980469" xlink:href="#DejaVuSans-6e"/>
     <use x="180.359375" xlink:href="#DejaVuSans-64"/>
     <use x="243.835938" xlink:href="#DejaVuSans-69"/>
     <use x="271.619141" xlink:href="#DejaVuSans-6e"/>
     <use x="334.998047" xlink:href="#DejaVuSans-67"/>
     <use x="398.474609" xlink:href="#DejaVuSans-20"/>
     <use x="430.261719" xlink:href="#DejaVuSans-74"/>
     <use x="469.470703" xlink:href="#DejaVuSans-68"/>
     <use x="532.849609" xlink:href="#DejaVuSans-65"/>
     <use x="594.373047" xlink:href="#DejaVuSans-20"/>
     <use x="626.160156" xlink:href="#DejaVuSans-70"/>
     <use x="689.636719" xlink:href="#DejaVuSans-6f"/>
     <use x="750.818359" xlink:href="#DejaVuSans-77"/>
     <use x="832.605469" xlink:href="#DejaVuSans-65"/>
     <use x="894.128906" xlink:href="#DejaVuSans-72"/>
     <use x="935.242188" xlink:href="#DejaVuSans-20"/>
     <use x="967.029297" xlink:href="#DejaVuSans-72"/>
     <use x="1008.111328" xlink:href="#DejaVuSans-65"/>
     <use x="1069.634766" xlink:href="#DejaVuSans-6c"/>
     <use x="1097.417969" xlink:href="#DejaVuSans-61"/>
     <use x="1158.697266" xlink:href="#DejaVuSans-74"/>
     <use x="1197.90625" xlink:href="#DejaVuSans-69"/>
     <use x="1225.689453" xlink:href="#DejaVuSans-6f"/>
     <use x="1286.871094" xlink:href="#DejaVuSans-6e"/>
     <use x="1350.25" xlink:href="#DejaVuSans-20"/>
     <use x="1382.037109" xlink:href="#DejaVuSans-63"/>
     <use x="1437.017578" xlink:href="#DejaVuSans-6f"/>
     <use x="1498.199219" xlink:href="#DejaVuSans-65"/>
     <use x="1559.722656" xlink:href="#DejaVuSans-66"/>
     <use x="1594.927734" xlink:href="#DejaVuSans-66"/>
     <use x="1630.132812" xlink:href="#DejaVuSans-69"/>
     <use x="1657.916016" xlink:href="#DejaVuSans-63"/>
     <use x="1712.896484" xlink:href="#DejaVuSans-69"/>
     <use x="1740.679688" xlink:href="#DejaVuSans-65"/>
     <use x="1802.203125" xlink:href="#DejaVuSans-6e"/>
     <use x="1865.582031" xlink:href="#DejaVuSans-74"/>
    </g>
   </g>
   <g id="legend_1">
    <g id="patch_7">
     <path d="M 256.815625 132.170063 
L 425.73125 132.170063 
Q 427.73125 132.170063 427.73125 130.170063 
L 427.73125 90.616 
Q 427.73125 88.616 425.73125 88.616 
L 256.815625 88.616 
Q 254.815625 88.616 254.815625 90.616 
L 254.815625 130.170063 
Q 254.815625 132.170063 256.815625 132.170063 
z
" style="fill:#ffffff;opacity:0.8;stroke:#cccccc;stroke-linejoin:miter;"/>
    </g>
    <g id="line2d_59"/>
    <g id="line2d_60">
     <g>
      <use style="fill:#0000ff;stroke:#0000ff;" x="268.815625" xlink:href="#mb9c69451dd" y="103.353188"/>
     </g>
    </g>
    <g id="text_12">
     <!-- Measured values of system -->
     <defs>
      <path d="M 9.8125 72.90625 
L 24.515625 72.90625 
L 43.109375 23.296875 
L 61.8125 72.90625 
L 76.515625 72.90625 
L 76.515625 0 
L 66.890625 0 
L 66.890625 64.015625 
L 48.09375 14.015625 
L 38.1875 14.015625 
L 19.390625 64.015625 
L 19.390625 0 
L 9.8125 0 
z
" id="DejaVuSans-4d"/>
      <path d="M 32.171875 -5.078125 
Q 28.375 -14.84375 24.75 -17.8125 
Q 21.140625 -20.796875 15.09375 -20.796875 
L 7.90625 -20.796875 
L 7.90625 -13.28125 
L 13.1875 -13.28125 
Q 16.890625 -13.28125 18.9375 -11.515625 
Q 21 -9.765625 23.484375 -3.21875 
L 25.09375 0.875 
L 2.984375 54.6875 
L 12.5 54.6875 
L 29.59375 11.921875 
L 46.6875 54.6875 
L 56.203125 54.6875 
z
" id="DejaVuSans-79"/>
     </defs>
     <g transform="translate(286.815625 100.214438)scale(0.1 -0.1)">
      <use xlink:href="#DejaVuSans-4d"/>
      <use x="86.279297" xlink:href="#DejaVuSans-65"/>
      <use x="147.802734" xlink:href="#DejaVuSans-61"/>
      <use x="209.082031" xlink:href="#DejaVuSans-73"/>
      <use x="261.181641" xlink:href="#DejaVuSans-75"/>
      <use x="324.560547" xlink:href="#DejaVuSans-72"/>
      <use x="365.642578" xlink:href="#DejaVuSans-65"/>
      <use x="427.166016" xlink:href="#DejaVuSans-64"/>
      <use x="490.642578" xlink:href="#DejaVuSans-20"/>
      <use x="522.429688" xlink:href="#DejaVuSans-76"/>
      <use x="581.609375" xlink:href="#DejaVuSans-61"/>
      <use x="642.888672" xlink:href="#DejaVuSans-6c"/>
      <use x="670.671875" xlink:href="#DejaVuSans-75"/>
      <use x="734.050781" xlink:href="#DejaVuSans-65"/>
      <use x="795.574219" xlink:href="#DejaVuSans-73"/>
      <use x="847.673828" xlink:href="#DejaVuSans-20"/>
      <use x="879.460938" xlink:href="#DejaVuSans-6f"/>
      <use x="940.642578" xlink:href="#DejaVuSans-66"/>
      <use x="975.847656" xlink:href="#DejaVuSans-20"/>
      <use x="1007.634766" xlink:href="#DejaVuSans-73"/>
      <use x="1059.734375" xlink:href="#DejaVuSans-79"/>
      <use x="1118.914062" xlink:href="#DejaVuSans-73"/>
      <use x="1171.013672" xlink:href="#DejaVuSans-74"/>
      <use x="1210.222656" xlink:href="#DejaVuSans-65"/>
      <use x="1271.746094" xlink:href="#DejaVuSans-6d"/>
     </g>
     <!-- (Length: 256) -->
     <defs>
      <path d="M 31 75.875 
Q 24.46875 64.65625 21.28125 53.65625 
Q 18.109375 42.671875 18.109375 31.390625 
Q 18.109375 20.125 21.3125 9.0625 
Q 24.515625 -2 31 -13.1875 
L 23.1875 -13.1875 
Q 15.875 -1.703125 12.234375 9.375 
Q 8.59375 20.453125 8.59375 31.390625 
Q 8.59375 42.28125 12.203125 53.3125 
Q 15.828125 64.359375 23.1875 75.875 
z
" id="DejaVuSans-28"/>
      <path d="M 9.8125 72.90625 
L 19.671875 72.90625 
L 19.671875 8.296875 
L 55.171875 8.296875 
L 55.171875 0 
L 9.8125 0 
z
" id="DejaVuSans-4c"/>
      <path d="M 11.71875 12.40625 
L 22.015625 12.40625 
L 22.015625 0 
L 11.71875 0 
z
M 11.71875 51.703125 
L 22.015625 51.703125 
L 22.015625 39.3125 
L 11.71875 39.3125 
z
" id="DejaVuSans-3a"/>
      <path d="M 33.015625 40.375 
Q 26.375 40.375 22.484375 35.828125 
Q 18.609375 31.296875 18.609375 23.390625 
Q 18.609375 15.53125 22.484375 10.953125 
Q 26.375 6.390625 33.015625 6.390625 
Q 39.65625 6.390625 43.53125 10.953125 
Q 47.40625 15.53125 47.40625 23.390625 
Q 47.40625 31.296875 43.53125 35.828125 
Q 39.65625 40.375 33.015625 40.375 
M 52.59375 71.296875 
L 52.59375 62.3125 
Q 48.875 64.0625 45.09375 64.984375 
Q 41.3125 65.921875 37.59375 65.921875 
Q 27.828125 65.921875 22.671875 59.328125 
Q 17.53125 52.734375 16.796875 39.40625 
Q 19.671875 43.65625 24.015625 45.921875 
Q 28.375 48.1875 33.59375 48.1875 
Q 44.578125 48.1875 50.953125 41.515625 
Q 57.328125 34.859375 57.328125 23.390625 
Q 57.328125 12.15625 50.6875 5.359375 
Q 44.046875 -1.421875 33.015625 -1.421875 
Q 20.359375 -1.421875 13.671875 8.265625 
Q 6.984375 17.96875 6.984375 36.375 
Q 6.984375 53.65625 15.1875 63.9375 
Q 23.390625 74.21875 37.203125 74.21875 
Q 40.921875 74.21875 44.703125 73.484375 
Q 48.484375 72.75 52.59375 71.296875 
" id="DejaVuSans-36"/>
      <path d="M 8.015625 75.875 
L 15.828125 75.875 
Q 23.140625 64.359375 26.78125 53.3125 
Q 30.421875 42.28125 30.421875 31.390625 
Q 30.421875 20.453125 26.78125 9.375 
Q 23.140625 -1.703125 15.828125 -13.1875 
L 8.015625 -13.1875 
Q 14.5 -2 17.703125 9.0625 
Q 20.90625 20.125 20.90625 31.390625 
Q 20.90625 42.671875 17.703125 53.65625 
Q 14.5 64.65625 8.015625 75.875 
" id="DejaVuSans-29"/>
     </defs>
     <g transform="translate(286.815625 111.41225)scale(0.1 -0.1)">
      <use xlink:href="#DejaVuSans-28"/>
      <use x="39.013672" xlink:href="#DejaVuSans-4c"/>
      <use x="94.710938" xlink:href="#DejaVuSans-65"/>
      <use x="156.234375" xlink:href="#DejaVuSans-6e"/>
      <use x="219.613281" xlink:href="#DejaVuSans-67"/>
      <use x="283.089844" xlink:href="#DejaVuSans-74"/>
      <use x="322.298828" xlink:href="#DejaVuSans-68"/>
      <use x="385.677734" xlink:href="#DejaVuSans-3a"/>
      <use x="419.369141" xlink:href="#DejaVuSans-20"/>
      <use x="451.15625" xlink:href="#DejaVuSans-32"/>
      <use x="514.779297" xlink:href="#DejaVuSans-35"/>
      <use x="578.402344" xlink:href="#DejaVuSans-36"/>
      <use x="642.025391" xlink:href="#DejaVuSans-29"/>
     </g>
    </g>
    <g id="line2d_61">
     <path d="M 258.815625 122.590375 
L 278.815625 122.590375 
" style="fill:none;stroke:#ff0000;stroke-linecap:square;stroke-width:1.5;"/>
    </g>
    <g id="line2d_62"/>
    <g id="text_13">
     <!-- Fitted line -->
     <g transform="translate(286.815625 126.090375)scale(0.1 -0.1)">
      <use xlink:href="#DejaVuSans-46"/>
      <use x="57.410156" xlink:href="#DejaVuSans-69"/>
      <use x="85.193359" xlink:href="#DejaVuSans-74"/>
      <use x="124.402344" xlink:href="#DejaVuSans-74"/>
      <use x="163.611328" xlink:href="#DejaVuSans-65"/>
      <use x="225.134766" xlink:href="#DejaVuSans-64"/>
      <use x="288.611328" xlink:href="#DejaVuSans-20"/>
      <use x="320.398438" xlink:href="#DejaVuSans-6c"/>
      <use x="348.181641" xlink:href="#DejaVuSans-69"/>
      <use x="375.964844" xlink:href="#DejaVuSans-6e"/>
      <use x="439.34375" xlink:href="#DejaVuSans-65"/>
     </g>
    </g>
   </g>
  </g>
 </g>
 <defs>
  <clipPath id="p44cec0fda8">
   <rect height="212.392" width="378.261041" x="54.470209" y="83.616"/>
  </clipPath>
 </defs>
</svg>
